<svg width="66" height="65" viewBox="0 0 66 65" fill="none" xmlns="http://www.w3.org/2000/svg">
<circle cx="32.9678" cy="32.5" r="32.5" fill="#D9D9D9"/>
<path d="M42.39 46.1223C40.6958 47.7646 38.8461 47.5053 37.0655 46.7274C35.1812 45.9322 33.4525 45.8976 31.4644 46.7274C28.9751 47.7992 27.6612 47.488 26.1745 46.1223C17.7384 37.4269 18.983 24.1848 28.5602 23.7008C30.8939 23.8218 32.5189 24.9801 33.8846 25.0838C35.9245 24.6689 37.878 23.4761 40.0562 23.6316C42.6666 23.8391 44.6373 24.8763 45.9338 26.7434C40.5402 29.9761 41.8195 37.0811 46.7636 39.0692C45.7783 41.6622 44.499 44.238 42.3727 46.1396L42.39 46.1223ZM33.7118 23.5971C33.4525 19.742 36.5814 16.5612 40.1772 16.25C40.6785 20.7101 36.132 24.0293 33.7118 23.5971Z" fill="black"/>
</svg>
