<svg width="66" height="65" viewBox="0 0 66 65" fill="none" xmlns="http://www.w3.org/2000/svg">
<circle cx="32.968" cy="32.5" r="32.5" fill="#D9D9D9"/>
<path d="M42.3895 46.1223C40.6953 47.7646 38.8456 47.5053 37.065 46.7274C35.1807 45.9322 33.452 45.8976 31.4639 46.7274C28.9746 47.7992 27.6607 47.488 26.174 46.1223C17.7379 37.4269 18.9826 24.1848 28.5597 23.7008C30.8935 23.8218 32.5185 24.9801 33.8841 25.0838C35.924 24.6689 37.8775 23.4761 40.0557 23.6316C42.6661 23.8391 44.6368 24.8763 45.9334 26.7434C40.5397 29.9761 41.819 37.0811 46.7631 39.0692C45.7778 41.6622 44.4985 44.238 42.3722 46.1396L42.3895 46.1223ZM33.7113 23.5971C33.452 19.742 36.581 16.5612 40.1767 16.25C40.678 20.7101 36.1315 24.0293 33.7113 23.5971Z" fill="black"/>
</svg>
