<svg width="66" height="65" viewBox="0 0 66 65" fill="none" xmlns="http://www.w3.org/2000/svg">
<circle cx="32.7339" cy="32.5" r="32.5" fill="#D9D9D9"/>
<g clip-path="url(#clip0_1_388)">
<path d="M18.2126 20.0618V43.6024L36.1209 47.3574V16.5957L18.2126 20.0618ZM27.2349 37.3069C21.5419 36.9397 22.1283 26.6781 27.3678 26.5966C32.9808 26.9676 32.4301 37.225 27.2349 37.3069ZM27.317 28.6057C24.3178 28.814 24.452 35.2391 27.2707 35.2907C30.257 35.0983 30.0816 28.6557 27.317 28.6057ZM39.1722 32.6981C39.4426 32.8968 39.7684 32.6981 39.7684 32.6981C39.4437 32.8968 48.6382 26.7895 48.6382 26.7895V37.8487C48.6382 39.0526 47.8675 39.5575 47.001 39.5575H37.252L37.2526 31.3798L39.1722 32.6981ZM37.253 23.1178V29.1349L39.3558 30.459C39.4113 30.4752 39.5315 30.4763 39.5869 30.459L48.6369 24.3574C48.6369 23.6354 47.9633 23.1178 47.5832 23.1178H37.253Z" fill="black"/>
</g>
<defs>
<clipPath id="clip0_1_388">
<rect width="30.4255" height="31.6426" fill="white" transform="translate(18.2126 16.5957)"/>
</clipPath>
</defs>
</svg>
