<svg width="65" height="65" viewBox="0 0 65 65" fill="none" xmlns="http://www.w3.org/2000/svg">
<circle cx="32.5" cy="32.5" r="32.5" fill="#D9D9D9"/>
<path d="M46.1222 30.5639H33.4403V34.3394H42.4435C41.9871 39.6085 37.6031 41.8628 33.4541 41.8628C28.1573 41.8628 23.5105 37.6862 23.5105 31.8085C23.5105 26.1383 27.9361 21.7543 33.468 21.7543C37.7414 21.7543 40.2446 24.4788 40.2446 24.4788L42.8722 21.7405C42.8722 21.7405 39.4978 17.9788 33.3297 17.9788C25.4744 17.9788 19.4031 24.6171 19.4031 31.8085C19.4031 38.7926 25.1148 45.6383 33.5371 45.6383C40.9361 45.6383 46.3297 40.5628 46.3297 33.0671C46.3297 31.4766 46.1222 30.5639 46.1222 30.5639Z" fill="black"/>
</svg>
