<svg width="37" height="50" viewBox="0 0 37 50" fill="none" xmlns="http://www.w3.org/2000/svg">
<path d="M31.2188 9.56641H5.78129C5.16798 9.56641 4.57978 9.89105 4.14611 10.4689C3.71243 11.0468 3.46879 11.8305 3.46879 12.6478V43.4612C3.46618 44.0485 3.59078 44.6244 3.82766 45.1197C4.06454 45.615 4.40363 46.0088 4.80426 46.2537C5.1104 46.4431 5.44376 46.5417 5.78129 46.5426C6.32416 46.5408 6.84901 46.2829 7.26274 45.8146C7.26963 45.8086 7.27594 45.8015 7.28152 45.7934L11.9239 40.3799H31.2188C31.8321 40.3799 32.4203 40.0552 32.854 39.4774C33.2877 38.8995 33.5313 38.1158 33.5313 37.2985V12.6478C33.5313 11.8305 33.2877 11.0468 32.854 10.4689C32.4203 9.89105 31.8321 9.56641 31.2188 9.56641ZM31.2188 37.2985H11.9239C11.3793 37.2982 10.8521 37.5539 10.4352 38.0207L10.4179 38.0419L5.78129 43.4612V12.6478H31.2188V37.2985ZM12.7188 21.8918C12.7188 21.4832 12.8406 21.0913 13.0574 20.8024C13.2743 20.5134 13.5684 20.3511 13.875 20.3511H23.125C23.4317 20.3511 23.7258 20.5134 23.9426 20.8024C24.1595 21.0913 24.2813 21.4832 24.2813 21.8918C24.2813 22.3004 24.1595 22.6923 23.9426 22.9812C23.7258 23.2701 23.4317 23.4325 23.125 23.4325H13.875C13.5684 23.4325 13.2743 23.2701 13.0574 22.9812C12.8406 22.6923 12.7188 22.3004 12.7188 21.8918ZM12.7188 28.0545C12.7188 27.6459 12.8406 27.254 13.0574 26.9651C13.2743 26.6761 13.5684 26.5138 13.875 26.5138H23.125C23.4317 26.5138 23.7258 26.6761 23.9426 26.9651C24.1595 27.254 24.2813 27.6459 24.2813 28.0545C24.2813 28.4631 24.1595 28.855 23.9426 29.1439C23.7258 29.4328 23.4317 29.5952 23.125 29.5952H13.875C13.5684 29.5952 13.2743 29.4328 13.0574 29.1439C12.8406 28.855 12.7188 28.4631 12.7188 28.0545Z" fill="#061A48"/>
</svg>
