<svg width="35" height="35" viewBox="0 0 35 35" fill="none" xmlns="http://www.w3.org/2000/svg">
<g clip-path="url(#clip0_4_748)">
<path fill-rule="evenodd" clip-rule="evenodd" d="M21.8749 27.7084C21.8751 28.4443 21.5972 29.153 21.0969 29.6925C20.5965 30.2321 19.9108 30.5626 19.177 30.6178L18.9582 30.6251H16.0416C15.3057 30.6253 14.597 30.3474 14.0574 29.8471C13.5179 29.3467 13.1874 28.6609 13.1322 27.9272L13.1249 27.7084H21.8749ZM17.4999 2.91675C20.1467 2.9167 22.6901 3.94472 24.5936 5.78394C26.497 7.62316 27.6117 10.1298 27.7024 12.7751L27.7082 13.1251V18.6142L30.3653 23.9284C30.4813 24.1603 30.5393 24.4168 30.5345 24.676C30.5296 24.9352 30.462 25.1894 30.3374 25.4168C30.2128 25.6441 30.035 25.8379 29.8191 25.9815C29.6033 26.1251 29.3559 26.2143 29.098 26.2413L28.9303 26.2501H6.06948C5.81014 26.2502 5.55464 26.1874 5.32489 26.0671C5.09514 25.9468 4.89797 25.7725 4.7503 25.5593C4.60263 25.3462 4.50885 25.1003 4.47699 24.843C4.44514 24.5856 4.47616 24.3243 4.5674 24.0815L4.63448 23.9284L7.29157 18.6142V13.1251C7.29157 10.4177 8.36709 7.82113 10.2815 5.9067C12.196 3.99227 14.7925 2.91675 17.4999 2.91675ZM17.4999 5.83341C15.6209 5.83352 13.8145 6.559 12.4573 7.85854C11.1002 9.15809 10.2971 10.9314 10.2155 12.8086L10.2082 13.1251V18.6142C10.2083 18.9759 10.141 19.3345 10.0099 19.6715L9.90053 19.9195L8.19428 23.3334H26.807L25.1007 19.918C24.9389 19.5947 24.8385 19.2441 24.8047 18.884L24.7916 18.6142V13.1251C24.7916 11.1912 24.0233 9.33655 22.6559 7.96909C21.2884 6.60164 19.4338 5.83341 17.4999 5.83341Z" fill="#061A48"/>
</g>
<defs>
<clipPath id="clip0_4_748">
<rect width="35" height="35" fill="white"/>
</clipPath>
</defs>
</svg>
