<svg width="7" height="11" viewBox="0 0 7 11" fill="none" xmlns="http://www.w3.org/2000/svg">
<path d="M6.94606 1.42153V0.573486H0.161743V1.42153H2.49385C2.96184 1.4229 3.41294 1.5966 3.76099 1.90946C4.10904 2.22231 4.32967 2.6524 4.38074 3.1176H0.161743V3.96564H4.38074C4.32967 4.43084 4.10904 4.86094 3.76099 5.17379C3.41294 5.48665 2.96184 5.66035 2.49385 5.66172H0.161743V6.65605L4.23954 10.3259L4.80688 9.69584L1.26674 6.50976H2.49385C3.18759 6.50875 3.85546 6.24633 4.36431 5.7748C4.87317 5.30328 5.18562 4.65729 5.23938 3.96564H6.94606V3.1176H5.23938C5.19073 2.48091 4.92157 1.88112 4.47826 1.42153H6.94606Z" fill="#727272"/>
</svg>
