<svg width="8" height="11" viewBox="0 0 8 11" fill="none" xmlns="http://www.w3.org/2000/svg">
<path d="M7.1764 1.42153V0.573486H0.39209V1.42153H2.7242C3.19219 1.4229 3.64328 1.5966 3.99134 1.90946C4.33939 2.22231 4.56001 2.6524 4.61109 3.1176H0.39209V3.96564H4.61109C4.56001 4.43084 4.33939 4.86094 3.99134 5.17379C3.64328 5.48665 3.19219 5.66035 2.7242 5.66172H0.39209V6.65605L4.46989 10.3259L5.03722 9.69584L1.49708 6.50976H2.7242C3.41793 6.50875 4.0858 6.24633 4.59466 5.7748C5.10351 5.30328 5.41597 4.65729 5.46972 3.96564H7.1764V3.1176H5.46972C5.42107 2.48091 5.15191 1.88112 4.70861 1.42153H7.1764Z" fill="#727272"/>
</svg>
